<!-- Generator: Adobe Illustrator 25.0.1, SVG Export Plug-In  -->
<svg version="1.1" xmlns="http://www.w3.org/2000/svg" xmlns:xlink="http://www.w3.org/1999/xlink" x="0px" y="0px"
	 width="1615.8px" height="1615.8px" viewBox="0 0 1615.8 1615.8"
	 style="overflow:visible;enable-background:new 0 0 1615.8 1615.8;" xml:space="preserve">
<style type="text/css">
	.st0{fill:url(#SVGID_1_);}
	.st1{fill:#FFFFFF;}
	.st2{fill:url(#SVGID_2_);}
</style>
<defs>
</defs>
<linearGradient id="SVGID_1_" gradientUnits="userSpaceOnUse" x1="230.8235" y1="1384.9412" x2="3863.4346" y2="-2247.6699">
	<stop  offset="0" style="stop-color:#008ADA"/>
	<stop  offset="0.3116" style="stop-color:#00B5FF"/>
	<stop  offset="0.6432" style="stop-color:#008DDC"/>
	<stop  offset="1" style="stop-color:#00BAFD"/>
</linearGradient>
<rect class="st0" width="1615.8" height="1615.8"/>
<g>
	<g>
		<path class="st1" d="M621.9,731.6c15.6,0,30.3,2.5,44.1,7.6c13.7,5.1,25.6,12.3,35.6,21.6c10,9.3,18,20.5,23.9,33.6
			c5.9,13,8.8,27.7,8.8,43.8c0,15.9-3,30.5-8.8,43.6c-5.9,13.2-13.9,24.4-23.9,33.8c-10,9.3-21.9,16.5-35.6,21.6
			c-13.7,5.1-28.4,7.6-44.1,7.6c-15.7,0-30.3-2.5-44.1-7.6c-13.7-5.1-25.7-12.2-35.8-21.4c-10.2-9.2-18.2-20.4-24.1-33.6
			c-5.9-13.2-8.8-27.8-8.8-44c0-16.2,3-30.8,8.8-43.8c5.9-13,14-24.2,24.3-33.6c10.3-9.3,22.2-16.5,35.8-21.6
			C591.7,734.2,606.3,731.6,621.9,731.6z M587.3,873.2c8.5,9.3,20,14,34.6,14c14.5,0,26.1-4.6,34.6-13.8s12.8-20.9,12.8-35.2
			c0-14-4.3-25.7-13-35.2c-8.6-9.5-20.1-14.2-34.4-14.2c-14.6,0-26.1,4.7-34.6,14c-4.4,4.7-7.7,10.1-9.9,16.3
			c-2.2,6.2-3.3,12.5-3.3,18.9c0,6.4,1.1,12.8,3.3,18.9C579.7,863.1,583,868.5,587.3,873.2z"/>
	</g>
	<g>
		<path class="st1" d="M778.1,904.9c0-11,3.8-20.3,11.5-28c7.7-7.7,17-11.5,28-11.5c11,0,20.3,3.8,28,11.5c7.7,7.7,11.5,17,11.5,28
			c0,11.3-3.7,20.7-11.1,28.4c-7.4,7.7-16.9,11.5-28.4,11.5c-11,0-20.3-3.8-28-11.3C782,925.9,778.1,916.4,778.1,904.9z
			 M785.6,699.8c0-9.6,2.9-17.6,8.6-24.1c5.8-6.4,13.6-9.7,23.5-9.7c9.3,0,17,3.1,23.1,9.5s9.1,14.4,9.1,24.3v110.8
			c0,9.9-3,18-9.1,24.3c-6,6.3-13.7,9.5-23.1,9.5c-9.3,0-17-3.1-23.1-9.5c-6.1-6.3-9.1-14.4-9.1-24.3V699.8z"/>
	</g>
	<g>
		<path class="st1" d="M1099.3,786.3c-4.9-11.5-11.9-21.4-20.8-29.4c-8.9-8.1-19.4-14.3-31.5-18.5c-12.1-4.2-25.1-6.4-39.1-6.4
			c-15.9,0-30.5,2.6-43.8,7.8c-13.3,5.2-24.7,12.6-34.2,22.2c-9.5,9.6-16.8,21-22,34.2c-5.2,13.2-7.8,27.9-7.8,44.1
			c0,14.6,2.6,28.1,7.8,40.8c5.2,12.6,12.4,23.6,21.6,32.7c9.2,9.2,20,16.5,32.5,21.8c12.5,5.3,26,8,40.6,8c9.9,0,18.7-1.2,26.7-3.5
			c6.4-1.8,10.7-7.8,10.7-14.5l0,0c0-9.4-8.5-16.7-17.8-14.9c-5,1-10.3,1.5-16,1.5c-11,0-20.9-1.8-29.8-5.3
			c-8.9-3.6-16.5-8.6-22.8-15.3c-6.3-6.6-11.2-14.4-14.6-23.5c-3.4-9.1-5.1-19.1-5.1-30c0-10.7,1.6-20.6,4.9-29.8
			c3.3-9.2,8.2-17.1,14.6-23.7c6.4-6.6,14.3-11.8,23.5-15.6c9.2-3.8,19.5-5.8,31.1-5.8c20.6,0,36.7,5.8,48.2,17.3s17.3,28,17.3,49.4
			c0,26.1,0,52.2,0,78.2v14.4c0,5.5,1.5,9.9,4.5,13.2c3,3.3,7.1,4.9,12.3,4.9c5.2,0,9.3-1.6,12.2-4.9s4.3-7.7,4.3-13.2v-97.2
			C1106.7,810.9,1104.2,797.8,1099.3,786.3z"/>
	</g>
	<g>
		<path class="st1" d="M1018.1,354.7c-250.3-116.1-547.3-7.3-663.4,243c-116.1,250.3-7.3,547.3,243,663.4
			c250.3,116.1,547.3,7.3,663.4-243C1377.2,767.8,1268.4,470.8,1018.1,354.7z M611.8,1230.5C378.5,1122.2,277,845.2,385.3,611.8
			C493.6,378.5,770.5,277,1003.9,385.3s334.8,385.2,226.5,618.6C1122.2,1237.3,845.2,1338.7,611.8,1230.5z"/>
	</g>
</g>
</svg>
