<!-- Generator: Adobe Illustrator 24.1.1, SVG Export Plug-In  -->
<svg version="1.1" xmlns="http://www.w3.org/2000/svg" xmlns:xlink="http://www.w3.org/1999/xlink" x="0px" y="0px"
	 width="904.37px" height="120.45px" viewBox="0 0 904.37 120.45" style="enable-background:new 0 0 904.37 120.45;"
	 xml:space="preserve">
<style type="text/css">
	.st0{fill:url(#SVGID_1_);}
	.st1{fill:url(#SVGID_2_);}
	.st2{fill:url(#SVGID_3_);}
	.st3{fill:url(#SVGID_4_);}
	.st4{fill:url(#SVGID_5_);}
	.st5{fill:url(#SVGID_6_);}
	.st6{fill:url(#SVGID_7_);}
	.st7{fill:url(#SVGID_8_);}
	.st8{fill:url(#SVGID_9_);}
	.st9{fill:url(#SVGID_10_);}
	.st10{fill:url(#SVGID_11_);}
	.st11{fill:url(#SVGID_12_);}
	.st12{fill:url(#SVGID_13_);}
	.st13{fill:url(#SVGID_14_);}
	.st14{fill:url(#SVGID_15_);}
	.st15{fill:url(#SVGID_16_);}
	.st16{fill:url(#SVGID_17_);}
	.st17{fill:url(#SVGID_18_);}
	.st18{fill:url(#SVGID_19_);}
	.st19{fill:url(#SVGID_20_);}
	.st20{fill:url(#SVGID_21_);}
	.st21{fill:url(#SVGID_22_);}
	.st22{fill:url(#SVGID_23_);}
	.st23{fill:url(#SVGID_24_);}
	.st24{fill:url(#SVGID_25_);}
	.st25{fill:url(#SVGID_26_);}
</style>
<defs>
</defs>
<linearGradient id="SVGID_1_" gradientUnits="userSpaceOnUse" x1="46.1381" y1="120.1176" x2="46.1381" y2="32.7288">
	<stop  offset="0" style="stop-color:#0086DA"/>
	<stop  offset="1" style="stop-color:#009FDA"/>
</linearGradient>
<path class="st0" d="M46.22,32.73c6.41,0,12.42,1.04,18.05,3.12c5.63,2.08,10.49,5.03,14.59,8.85c4.1,3.82,7.37,8.41,9.79,13.75
	c2.42,5.34,3.62,11.33,3.62,17.96c0,6.53-1.21,12.49-3.62,17.88c-2.42,5.4-5.68,10.01-9.79,13.84c-4.1,3.82-8.96,6.78-14.59,8.85
	c-5.62,2.08-11.63,3.12-18.05,3.12s-12.43-1.04-18.05-3.12c-5.62-2.08-10.52-5-14.68-8.77c-4.16-3.77-7.45-8.35-9.87-13.75
	S0,83.06,0,76.42c0-6.63,1.21-12.62,3.62-17.96s5.74-9.93,9.95-13.75c4.22-3.82,9.11-6.78,14.68-8.85S39.81,32.73,46.22,32.73z
	 M32.05,90.76c3.49,3.83,8.21,5.74,14.17,5.74c5.96,0,10.68-1.88,14.17-5.65c3.49-3.77,5.23-8.57,5.23-14.43
	c0-5.73-1.77-10.54-5.31-14.42s-8.24-5.82-14.09-5.82c-5.97,0-10.69,1.92-14.17,5.74c-1.8,1.92-3.14,4.13-4.04,6.67
	c-0.91,2.53-1.35,5.11-1.35,7.76c0,2.64,0.45,5.23,1.35,7.76C28.91,86.63,30.25,88.85,32.05,90.76z"/>
<linearGradient id="SVGID_2_" gradientUnits="userSpaceOnUse" x1="136.9717" y1="120.1176" x2="136.9717" y2="32.7288">
	<stop  offset="0" style="stop-color:#0086DA"/>
	<stop  offset="1" style="stop-color:#009FDA"/>
</linearGradient>
<path class="st1" d="M103.24,94.14c2.37-2.92,4.95-4.39,7.76-4.39c2.02,0,4.1,0.84,6.24,2.53c6.41,5.06,13.5,7.58,21.26,7.58
	c6.29,0,9.45-1.79,9.45-5.4c0-1.69-1.13-3.06-3.37-4.13c-2.25-1.07-6.36-2.44-12.31-4.13c-1.69-0.45-3.58-0.98-5.66-1.61
	c-2.08-0.61-4.16-1.35-6.24-2.19c-2.08-0.84-4.02-1.77-5.82-2.79c-1.8-1.01-3.32-2.19-4.55-3.54c-1.58-1.57-3.01-3.76-4.3-6.58
	c-1.3-2.81-1.94-6.01-1.94-9.62c0-4.72,0.84-8.77,2.53-12.14c1.69-3.38,4.05-6.18,7.08-8.44c3.03-2.25,6.67-3.91,10.88-4.98
	c4.22-1.07,8.85-1.61,13.92-1.61c11.92,0,20.86,2.48,26.82,7.43c5.74,3.93,6.69,8.66,2.87,14.17c-2.48,3.49-5.29,5.23-8.44,5.23
	c-1.92,0-3.93-0.56-6.07-1.69c-5.86-3.49-11.25-5.23-16.2-5.23c-5.18,0-7.76,1.58-7.76,4.72c0,1.69,1.01,3.04,3.03,4.05
	c2.02,1.02,5.4,2.14,10.12,3.38c3.93,1.01,7.78,2.16,11.55,3.45c3.77,1.3,7.11,2.99,10.04,5.07c2.92,2.08,5.29,4.7,7.09,7.85
	c1.79,3.14,2.7,7.14,2.7,11.97c0,8.89-3.15,15.61-9.45,20.16c-6.3,4.56-14.91,6.84-25.82,6.84c-7.87,0-14.9-1.07-21.09-3.21
	s-10.63-4.56-13.32-7.26C98.97,105.04,98.63,99.87,103.24,94.14z"/>
<linearGradient id="SVGID_3_" gradientUnits="userSpaceOnUse" x1="227.4848" y1="120.1176" x2="227.4848" y2="34.081">
	<stop  offset="0" style="stop-color:#0086DA"/>
	<stop  offset="1" style="stop-color:#009FDA"/>
</linearGradient>
<path class="st2" d="M185.06,80.81V47.75c0-3.94,1.24-7.2,3.71-9.79s5.62-3.88,9.45-3.88c3.82,0,6.99,1.29,9.53,3.88
	c2.53,2.59,3.8,5.85,3.8,9.79V77.6c0,6.86,1.35,11.72,4.05,14.59c2.7,2.87,6.63,4.25,11.81,4.13c5.18,0,9.14-1.15,11.9-3.45
	c2.75-2.31,4.13-4.87,4.13-7.68V47.75c0-3.94,1.21-7.2,3.62-9.79s5.59-3.88,9.53-3.88c3.82,0,7,1.29,9.53,3.88
	c2.53,2.59,3.8,5.85,3.8,9.79v57.69c0,3.94-1.24,7.15-3.71,9.62c-2.48,2.48-5.57,3.71-9.28,3.71c-3.15,0-5.77-0.9-7.85-2.7
	c-2.08-1.8-3.34-3.94-3.8-6.41v-0.17h-1.01c-1.58,2.7-4.47,5.15-8.69,7.34c-4.21,2.2-9.19,3.29-14.93,3.29
	c-5.18,0-9.95-0.82-14.34-2.45c-4.39-1.63-8.15-4.07-11.3-7.34c-3.15-3.26-5.6-7.34-7.34-12.23
	C185.93,93.21,185.06,87.44,185.06,80.81z"/>
<linearGradient id="SVGID_4_" gradientUnits="userSpaceOnUse" x1="302.9744" y1="120.4539" x2="302.9744" y2="6.2465">
	<stop  offset="0" style="stop-color:#0086DA"/>
	<stop  offset="1" style="stop-color:#009FDA"/>
</linearGradient>
<path class="st3" d="M286.78,104.09c0-4.5,1.57-8.32,4.72-11.47c3.14-3.15,6.97-4.72,11.47-4.72c4.5,0,8.32,1.57,11.47,4.72
	c3.15,3.15,4.72,6.97,4.72,11.47c0,4.61-1.52,8.49-4.55,11.64c-3.04,3.14-6.92,4.72-11.64,4.72c-4.5,0-8.33-1.55-11.47-4.64
	C288.35,112.72,286.78,108.81,286.78,104.09z M289.82,20.08c0-3.93,1.18-7.23,3.54-9.87c2.36-2.64,5.57-3.96,9.62-3.96
	c3.82,0,6.97,1.29,9.45,3.88s3.71,5.9,3.71,9.95v45.38c0,4.05-1.24,7.37-3.71,9.95c-2.47,2.59-5.62,3.88-9.45,3.88
	c-3.82,0-6.97-1.29-9.45-3.88c-2.48-2.59-3.71-5.9-3.71-9.95V20.08z"/>
<linearGradient id="SVGID_5_" gradientUnits="userSpaceOnUse" x1="469.6777" y1="33.2367" x2="469.6777" y2="118.7653">
	<stop  offset="0" style="stop-color:#0086DA"/>
	<stop  offset="1" style="stop-color:#009FDA"/>
</linearGradient>
<path class="st4" d="M444.01,41.67c0-4.83,2.24-7.26,6.75-7.26c4.5,0,6.75,2.42,6.75,7.26v6.58h0.67c1.91-4.05,4.83-7.56,8.77-10.54
	c3.93-2.98,8.6-4.47,14-4.47c2.47,0,5.45,0.56,8.94,1.69c4.39,1.01,6.13,3.65,5.23,7.93c-0.79,4.16-3.49,5.79-8.1,4.89
	c-2.47-1.02-4.78-1.52-6.91-1.52c-7.08,0-12.63,3.15-16.62,9.45c-3.99,6.29-5.99,15.24-5.99,26.82v29.02c0,4.84-2.25,7.26-6.75,7.26
	c-4.5,0-6.75-2.42-6.75-7.26V41.67z"/>
<linearGradient id="SVGID_6_" gradientUnits="userSpaceOnUse" x1="546.2167" y1="33.2367" x2="546.2167" y2="119.9459">
	<stop  offset="0" style="stop-color:#0086DA"/>
	<stop  offset="1" style="stop-color:#009FDA"/>
</linearGradient>
<path class="st5" d="M550.96,33.24c6.18,0,11.81,1.13,16.87,3.37c5.06,2.25,9.78,5.46,14.17,9.62c2.92,2.7,2.7,5.74-0.67,9.11
	c-1.69,1.69-3.27,2.53-4.72,2.53c-1.47,0-2.93-0.73-4.39-2.19c-3.15-3.15-6.47-5.54-9.95-7.17c-3.49-1.63-7.26-2.44-11.31-2.44
	c-4.39,0-8.38,0.79-11.98,2.36c-3.6,1.57-6.72,3.71-9.36,6.41c-2.64,2.7-4.7,5.9-6.16,9.62c-1.46,3.71-2.19,7.76-2.19,12.14
	c0,4.28,0.73,8.26,2.19,11.98c1.46,3.71,3.49,6.95,6.07,9.7c2.59,2.76,5.68,4.92,9.27,6.49c3.6,1.58,7.59,2.36,11.98,2.36
	c8.55,0,15.97-3.48,22.27-10.45c1.46-1.58,2.98-2.37,4.56-2.37c1.69,0,3.26,0.73,4.72,2.2c3.38,3.15,3.54,6.36,0.51,9.62
	c-8.66,9.22-19.29,13.83-31.88,13.83c-6.3,0-12.09-1.07-17.37-3.21c-5.29-2.13-9.87-5.11-13.75-8.94
	c-3.89-3.82-6.92-8.41-9.11-13.75c-2.2-5.34-3.29-11.16-3.29-17.46c0-6.29,1.1-12.12,3.29-17.46c2.19-5.34,5.22-9.92,9.11-13.75
	c3.88-3.82,8.46-6.8,13.75-8.94C538.87,34.31,544.66,33.24,550.96,33.24z"/>
<linearGradient id="SVGID_7_" gradientUnits="userSpaceOnUse" x1="708.2639" y1="0" x2="708.2639" y2="118.7653">
	<stop  offset="0" style="stop-color:#0086DA"/>
	<stop  offset="1" style="stop-color:#009FDA"/>
</linearGradient>
<path class="st6" d="M701.94,2.53c0.78-0.9,1.74-1.54,2.87-1.94c1.12-0.4,2.3-0.6,3.54-0.6c2.47,0,4.55,0.84,6.24,2.53
	c1.57,1.58,2.36,3.66,2.36,6.24c0,2.59-0.79,4.67-2.36,6.25c-1.58,1.57-3.65,2.36-6.24,2.36s-4.72-0.84-6.41-2.53
	c-1.58-1.57-2.36-3.6-2.36-6.07C699.58,6.3,700.36,4.22,701.94,2.53z M701.43,111.51V41.67c0-2.13,0.62-3.88,1.86-5.23
	c1.24-1.35,2.86-2.02,4.89-2.02c2.13,0,3.82,0.65,5.07,1.94c1.24,1.29,1.85,3.06,1.85,5.31v69.84c0,2.25-0.62,4.02-1.85,5.31
	c-1.24,1.3-2.93,1.94-5.07,1.94c-2.02,0-3.65-0.67-4.89-2.02C702.05,115.39,701.43,113.65,701.43,111.51z"/>
<linearGradient id="SVGID_8_" gradientUnits="userSpaceOnUse" x1="864.4736" y1="33.2367" x2="864.4736" y2="119.9459">
	<stop  offset="0" style="stop-color:#0086DA"/>
	<stop  offset="1" style="stop-color:#009FDA"/>
</linearGradient>
<path class="st7" d="M901.25,78.95c2.08-2.13,3.12-5.06,3.12-8.77c0-5.73-0.96-10.88-2.87-15.44c-1.92-4.55-4.61-8.43-8.1-11.63
	c-3.49-3.21-7.56-5.66-12.23-7.34c-4.67-1.69-9.82-2.53-15.44-2.53c-6.3,0-11.98,1.13-17.04,3.37c-5.07,2.25-9.39,5.32-12.99,9.2
	c-3.6,3.88-6.35,8.49-8.26,13.83c-1.92,5.34-2.87,11.05-2.87,17.13c0,6.52,1.07,12.45,3.21,17.79c2.13,5.35,5.15,9.9,9.03,13.67
	c3.88,3.77,8.52,6.67,13.92,8.69c5.4,2.02,11.35,3.03,17.88,3.03c11.02,0,19.79-2.19,26.32-6.58c4.04-2.7,4.94-5.85,2.7-9.45
	c-1.24-2.13-2.92-3.21-5.07-3.21c-1.24,0-2.75,0.45-4.55,1.35c-3.38,1.69-6.69,2.98-9.95,3.88c-3.26,0.91-6.64,1.35-10.12,1.35
	c-8.09,0-14.7-2.31-19.82-6.92c-5.12-4.61-8.24-10.68-9.36-18.22c-0.77-9.61,1.09-17.52,3.54-22.01c2.5-4.58,5.9-7.59,5.9-7.59
	c2.36-2.08,5.03-3.71,8.01-4.89c2.98-1.18,6.16-1.77,9.53-1.77c3.6,0,6.94,0.59,10.04,1.77c3.1,1.18,5.79,2.84,8.1,4.98
	c2.3,2.14,4.1,4.67,5.4,7.59c1.29,2.92,1.94,6.18,1.94,9.79h-32.57c-3.35,0-6.07,2.72-6.07,6.07v0c0,3.35,2.72,6.07,6.07,6.07h34.08
	C896.33,82.16,899.17,81.09,901.25,78.95z"/>
<g>
	<linearGradient id="SVGID_9_" gradientUnits="userSpaceOnUse" x1="755.9505" y1="34.2457" x2="755.9505" y2="119.6096">
		<stop  offset="0" style="stop-color:#0086DA"/>
		<stop  offset="1" style="stop-color:#009FDA"/>
	</linearGradient>
	<path class="st8" d="M759.77,69.33l-12.96-30.69c-1.24-2.92-3.26-4.39-6.07-4.39c-0.9,0-2.02,0.29-3.37,0.84
		c-1.8,0.79-2.95,2.05-3.46,3.8c-0.51,1.74-0.31,3.58,0.59,5.48l31.38,70.68c1.69,3.04,3.88,4.56,6.58,4.56
		c1.24,0,2.44-0.36,3.62-1.1c0.01-0.01,0.02-0.01,0.04-0.02c2.02-1.26,2.67-3.93,1.74-6.13L759.77,69.33z"/>
	<linearGradient id="SVGID_10_" gradientUnits="userSpaceOnUse" x1="798.0789" y1="34.2457" x2="798.0789" y2="78.1425">
		<stop  offset="0" style="stop-color:#0086DA"/>
		<stop  offset="1" style="stop-color:#009FDA"/>
	</linearGradient>
	<path class="st9" d="M785.23,74.16c2.21,5.26,9.63,5.33,11.95,0.12l13.23-29.74c2.02-4.39,1.07-7.54-2.87-9.45
		c-1.35-0.56-2.47-0.84-3.37-0.84c-2.59,0-4.61,1.47-6.07,4.39L785.23,69.1C784.55,70.72,784.55,72.54,785.23,74.16L785.23,74.16z"
		/>
</g>
<g>
	<linearGradient id="SVGID_11_" gradientUnits="userSpaceOnUse" x1="610.1842" y1="0.3432" x2="610.1842" y2="118.7653">
		<stop  offset="0" style="stop-color:#0086DA"/>
		<stop  offset="1" style="stop-color:#009FDA"/>
	</linearGradient>
	<path class="st10" d="M616.95,46.22h-0.03V7.59c0-4.83-2.25-7.25-6.75-7.25c-4.5,0-6.75,2.42-6.75,7.25v103.92
		c0,4.84,2.24,7.26,6.75,7.26c4.5,0,6.75-2.42,6.75-7.26V65.12c0-0.17,0.02-0.35,0.03-0.52V46.22z"/>
	<linearGradient id="SVGID_12_" gradientUnits="userSpaceOnUse" x1="654.0399" y1="33.2367" x2="654.0399" y2="118.7653">
		<stop  offset="0" style="stop-color:#0086DA"/>
		<stop  offset="1" style="stop-color:#009FDA"/>
	</linearGradient>
	<path class="st11" d="M675.03,51.79c-1.63-4.16-3.91-7.61-6.83-10.37c-2.92-2.75-6.44-4.81-10.54-6.16
		c-4.1-1.35-8.64-2.02-13.58-2.02c-3.15,0-6.06,0.3-8.73,0.91c-2.79,0.63-4.74,3.16-4.74,6.02v0c0,3.73,3.27,6.55,6.97,6.12
		c1.33-0.16,2.77-0.24,4.31-0.22c4.3,0.07,11.01,0.33,16.36,5.06c3.82,3.38,5.73,9.11,5.73,17.21v43.18c0,4.84,2.25,7.26,6.75,7.26
		c4.5,0,6.75-2.42,6.75-7.26V66.3C677.47,60.79,676.66,55.96,675.03,51.79z"/>
</g>
<linearGradient id="SVGID_13_" gradientUnits="userSpaceOnUse" x1="379.0543" y1="33.2367" x2="379.0543" y2="119.9459">
	<stop  offset="0" style="stop-color:#0086DA"/>
	<stop  offset="1" style="stop-color:#009FDA"/>
</linearGradient>
<path class="st12" d="M418.36,55.5c-2.02-4.72-4.87-8.75-8.52-12.06c-3.66-3.32-7.96-5.85-12.9-7.59
	c-4.95-1.74-10.29-2.62-16.03-2.62c-6.52,0-12.51,1.07-17.96,3.21c-5.46,2.13-10.12,5.18-14,9.11c-3.88,3.94-6.89,8.6-9.03,14
	c-2.13,5.4-3.21,11.42-3.21,18.05c0,5.97,1.07,11.53,3.21,16.7c2.13,5.18,5.09,9.65,8.86,13.41c3.76,3.77,8.2,6.75,13.32,8.94
	c5.11,2.19,10.65,3.29,16.62,3.29c4.06,0,7.68-0.51,10.95-1.43c2.63-0.74,4.4-3.2,4.4-5.93v0c0-3.85-3.5-6.85-7.28-6.09
	c-2.04,0.41-4.22,0.63-6.56,0.63c-4.5,0-8.58-0.73-12.23-2.19c-3.65-1.46-6.78-3.54-9.36-6.25c-2.59-2.7-4.59-5.9-5.99-9.61
	c-1.41-3.71-2.11-7.82-2.11-12.31c0-4.39,0.67-8.46,2.02-12.23c1.35-3.77,3.35-7,5.99-9.7c2.64-2.7,5.85-4.84,9.62-6.41
	c3.77-1.57,8.01-2.36,12.73-2.36c8.44,0,15.02,2.36,19.74,7.08c4.72,4.72,7.08,11.47,7.08,20.24c0,10.68,0,21.37,0,32.05v5.91
	c0,2.25,0.62,4.04,1.85,5.4s2.92,2.02,5.06,2.02c2.13,0,3.8-0.67,4.98-2.02c1.18-1.35,1.77-3.14,1.77-5.4V71.53
	C421.4,65.57,420.39,60.23,418.36,55.5z"/>
</svg>
